<?xml version="1.0" encoding="utf-8"?><!DOCTYPE svg PUBLIC "-//W3C//DTD SVG 1.1//EN" "http://www.w3.org/Graphics/SVG/1.1/DTD/svg11.dtd"><svg xmlns="http://www.w3.org/2000/svg" xmlns:xlink="http://www.w3.org/1999/xlink"><symbol viewBox="0 0 64 64" id="icon-linea-arrows-check"><path fill="none" stroke="#000" stroke-width="2" stroke-miterlimit="10" d="M13 33l12 12 24-24"/></symbol><symbol viewBox="0 0 64 64" id="icon-linea-arrows-checkbox"><path fill="none" stroke="currentColor" stroke-width="10" stroke-miterlimit="10" d="M13 33l12 12 30-30"/></symbol><symbol viewBox="0 0 64 64" id="icon-linea-arrows-left-double"><path fill="none" stroke="currentColor" stroke-width="inherit" stroke-miterlimit="10" d="M32.936 48.936l-17-17 17-17"/><path fill="none" stroke="currentColor" stroke-width="inherit" stroke-miterlimit="10" d="M47.936 48.936l-17-17 17-17"/></symbol><symbol viewBox="0 0 64 64" id="icon-linea-arrows-right-double"><path fill="none" stroke="currentColor" stroke-width="inherit" stroke-miterlimit="10" d="M31 15l17 17-17 17"/><path fill="none" stroke="currentColor" stroke-width="inherit" stroke-miterlimit="10" d="M16 15l17 17-17 17"/></symbol><symbol viewBox="0 0 64 64" id="icon-linea-basic-calendar"><g fill="none" stroke="#000" stroke-width="2" stroke-miterlimit="10"><path d="M46 10H18M12 10H1v48h62V10H52"/><path d="M12 6h6v8h-6zM46 6h6v8h-6zM10 24h10v10H10zM10 42h10v10H10zM44 24h10v10H44zM44 42h10v10H44zM27 24h10v10H27zM27 42h10v10H27z"/></g><path fill="none" stroke="#000" stroke-width="2" stroke-miterlimit="10" d="M1 18h62"/></symbol><symbol viewBox="0 0 64 64" id="icon-linea-basic-compass"><circle fill="none" stroke="#000" stroke-width="2" stroke-miterlimit="10" cx="32" cy="35" r="28.292"/><path fill="none" stroke="#000" stroke-width="2" stroke-linejoin="bevel" stroke-miterlimit="10" d="M37 40l8-19-19 8-7 18z"/><path fill="none" stroke="#000" stroke-width="2" stroke-miterlimit="10" d="M26 29l11 11M36.9 7a5 5 0 1 0-9.8 0M32 7v5M32 58v5M60 35h-5M9 35H4"/></symbol><symbol viewBox="0 0 64 64" id="icon-linea-basic-mail"><g fill="none" stroke="#000" stroke-width="2" stroke-miterlimit="10"><path d="M1 13h62v37H1z"/><path d="M1 13l31 20 31-20"/></g></symbol><symbol viewBox="0 0 64 64" id="icon-linea-basic-smartphone"><g fill="none" stroke="#000" stroke-width="2" stroke-miterlimit="10"><path d="M16 1h32v62H16zM28 5h8M16 51h32M16 9h32"/><circle stroke-linejoin="bevel" cx="32" cy="57" r="2"/></g></symbol><symbol viewBox="0 0 401.998 401.998" id="icon-rupee1"><path d="M326.62 91.076c-1.71-1.713-3.9-2.568-6.563-2.568h-48.82c-3.238-15.793-9.33-29.502-18.274-41.112h66.52c2.67 0 4.853-.856 6.57-2.565 1.704-1.71 2.56-3.902 2.56-6.566V9.136c0-2.666-.855-4.853-2.56-6.567C324.333.86 322.15 0 319.48 0H81.94c-2.665 0-4.852.86-6.566 2.568-1.71 1.714-2.568 3.9-2.568 6.567v37.972c0 2.474.904 4.615 2.712 6.423s3.95 2.712 6.423 2.712h41.4c40.16 0 65.665 10.75 76.513 32.26H81.94c-2.665 0-4.855.856-6.566 2.57-1.71 1.714-2.568 3.9-2.568 6.566v29.124c0 2.664.855 4.854 2.568 6.563 1.714 1.715 3.905 2.568 6.567 2.568h121.916c-4.188 15.612-13.944 27.506-29.268 35.69-15.325 8.187-35.544 12.28-60.67 12.28H81.94c-2.473 0-4.614.905-6.422 2.712-1.81 1.81-2.712 3.95-2.712 6.423v36.263c0 2.48.855 4.572 2.568 6.283 36.543 38.828 83.94 93.165 142.182 163.025 1.715 2.286 4.093 3.426 7.14 3.426h55.67c4.002 0 6.764-1.708 8.282-5.14 1.903-3.427 1.53-6.663-1.143-9.71-55.572-68.142-99.258-119.152-131.045-153.03 32.358-3.807 58.625-14.278 78.802-31.405 20.174-17.13 32.45-39.404 36.83-66.812h47.965c2.662 0 4.853-.854 6.563-2.568 1.715-1.71 2.573-3.9 2.573-6.563v-29.12c0-2.67-.858-4.857-2.573-6.57z"/></symbol><symbol viewBox="0 0 792 792" id="icon-rupee2"><path d="M635.733 182.58H521.668c-7.607-68.9-39.626-118.542-80.986-148.876h195.052c9.292 0 16.852-7.56 16.852-16.852C652.586 7.56 645.026 0 635.733 0H156.267c-9.293 0-16.852 7.56-16.852 16.852 0 9.293 7.56 16.852 16.852 16.852H360.08c54.457 10.063 116.473 55.37 127.933 148.876H156.267c-9.293 0-16.852 7.56-16.852 16.853 0 9.292 7.56 16.852 16.852 16.852H490.18c-.675 46.85-16.708 84.838-48.15 112.86-89.123 79.206-271.077 58.983-272.858 58.84-6.74-.675-13.626 2.695-16.852 8.858-3.274 6.115-2.408 13.626 2.12 18.923l319.948 370.408c3.322 3.852 8.04 5.826 12.76 5.826 3.9 0 7.848-1.348 11.025-4.093 7.03-6.066 7.8-16.707 1.733-23.785l-293.71-340.027c63.365 1.638 184.796-4.478 258.175-69.72 38.954-34.618 58.84-81.178 59.513-138.09h111.85c9.293 0 16.853-7.56 16.853-16.852 0-9.293-7.512-16.853-16.853-16.853z"/></symbol></svg>