<?xml version="1.0" encoding="iso-8859-1" ?><!DOCTYPE SVG PUBLIC "-//W3C//DTD SVG 1.1//EN" "http://www.w3.org/Graphics/SVG/1.1/DTD/svg11.dtd"><svg xmlns="http://www.w3.org/2000/svg" xmlns:xlink="http://www.w3.org/1999/xlink"><symbol viewBox="0 0 67.025 67.026" id="icon-blog"><path d="M41.44 29.477l3.136 1.792 6.272-3.585-9.407-5.6zM60.48 18.052l2.24-4.03c1.79-3.138-3.36-6.722-5.824-8.064-2.465-1.345-8.063-4.257-9.855-.896l-3.136 5.376c-3.137-.672-6.72-1.12-10.304-1.12-18.592 0-33.6 10.08-33.6 22.4 0 12.318 15.008 22.398 33.6 22.398h.225c.224 2.688-2.912 7.168-7.393 9.407 17.698 0 25.76-13.216 25.76-13.216 8.96-4.032 14.784-10.752 14.784-18.592.448-5.15-2.24-9.854-6.496-13.663zM15.455 37.99c-1.792 0-3.136-1.346-3.136-3.138 0-1.792 1.343-3.136 3.135-3.136s3.136 1.344 3.136 3.136-1.565 3.138-3.135 3.138zm8.288 0c-1.792 0-3.136-1.346-3.136-3.138 0-1.792 1.344-3.136 3.136-3.136s3.136 1.344 3.136 3.136-1.345 3.138-3.137 3.138zm8.29 0c-1.793 0-3.138-1.346-3.138-3.138 0-1.792 1.345-3.136 3.137-3.136s3.136 1.344 3.136 3.136-1.344 3.138-3.136 3.138zm19.936-9.633l-6.497 3.584-5.377 2.912V21.413l8.96-15.456c.448-.896 3.585 0 6.944 1.792s5.6 4.03 4.928 4.927l-8.96 15.68z"/></symbol><symbol viewBox="0 0 355.434 355.434" id="icon-chilli"><path d="M315.288 132.005c1.862 6.326.204 13.23-4.312 18.152-11.553-5.503-18.668-23.803-20.95-30.56.59-.148 1.135-.21 1.627-.21 3.766 0 6.51 2.89 6.533 2.934.47.506 1.063.86 1.73 1 .4.082 2.57.523 5.716.523 16.987 0 31.2-11.136 42.07-28.08l2.762-3.124c21.725-5.133-34.792 40.68-35.176 39.365zm-12.442 49.963c-21.73 49.035-213.194 107.1-273.19 110.068C146.17 249.93 230.26 137.556 231.04 136.464c.812-.886 19.817-21.755 38.18-21.755 5.044 0 9.716 1.653 13.865 4.923 1.675 5.473 9.806 29.64 25.6 36.734m-261.4-4.6c24.626 16.276 29.49 33.576 29.847 59.798l.135 9.626 5.804-7.686c6.207-8.227 11.752-23.07 9.293-36.25-.86-4.525-2.588-8.473-5.146-11.763 9.365 1.508 13.304 11.242 17.387 23.684 2.95 8.972 5.51 16.718 12.045 18.207 5.154 1.178 10.735-1.873 18.65-10.147 7.51-7.722 10.673-15.222 9.39-22.284-2.448-13.46-19.805-21.63-35.13-28.84-2.368-1.12-4.623-2.182-6.74-3.22 3.114-.91 6.507-1.373 10.122-1.373 9.515 0 20.095 3.132 30.585 9.053 2.258 1.42 4.73 3.25 7.127 5.022 6.996 5.18 14.934 11.076 22.936 11.076 1.228 0 2.453-.15 3.615-.426 5.558-1.32 10.098-5.582 13.868-13.027 11.18-21.164-6.558-35.18-23.73-48.738-15.637-12.358-30.44-24.05-27.74-41.08 3.993 9.26 15.048 26.275 43.53 32.454 4.554 1.604 44.233 16.29 40.21 39.815-10.118 12.893-62.605 77.072-136.09 121.29-6.53-5.457-15.212-7.74-23.027-9.805-6.456-1.718-13.142-3.5-18.3-6.714-13.553-9.89-19.074-24.21-21.3-34.4-.657-5.29-.99-10.7-1.332-16.44C22.032 168.823 20.642 145.41 0 130.233c16.108 3.185 36.936 14.778 47.285 21.533z"/></symbol><symbol viewBox="0 0 14 14" enable-background="new 0 0 14 14" id="icon-close"><path d="M7 9L5.268 7.484.316 11.73c.18.166.423.27.69.27h11.987c.267 0 .51-.104.688-.27L8.733 7.483 7 9zM13.684 2.27c-.18-.167-.422-.27-.69-.27H1.006c-.267 0-.51.104-.69.273L7 8l6.684-5.73zM0 2.878v8.308L4.833 7.08zM9.167 7.08L14 11.185v-8.31z"/></symbol><symbol viewBox="0 0 90 90" id="icon-facebook"><path d="M90 15c0-7.88-7.116-15-15-15H15C7.116 0 0 7.12 0 15v60c0 7.88 7.116 15 15 15h30V56H34V41h11v-5.844C45 25.076 52.568 16 61.875 16H74v15H61.875C60.548 31 59 32.61 59 35.024V41h15v15H59v34h16c7.884 0 15-7.12 15-15V15z"/></symbol><symbol viewBox="0 0 26.827 26.827" id="icon-history"><path d="M23.158 22.585v-12.38h2.294v-1.53H1.222v1.53h2.37v12.38h2.37v-12.38h3.057v12.38h2.368v-12.38h3.973v12.38h2.372v-12.38h3.056v12.38zM13.528.267L0 7.97h26.827zM25.452 23.924v-.878h-24v1.756H.61v1.76h25.838V24.8h-.996z"/></symbol><symbol viewBox="0 0 600.759 600.759" id="icon-map"><path d="M203.993 295.287c21 0 38.024 17.023 38.024 38.018s-17.023 38.024-38.024 38.024c-20.998 0-38.02-17.03-38.02-38.025s17.022-38.018 38.02-38.018zM574.267 325.822L600.05 122.56 415.112 52.378 193.28 158.338 0 76.71l26.1 216.848L1.084 507.093l205.36 38.52 209.46-39.89L600.76 548.38l-26.493-222.558zM414.427 73.91l163.812 61.73-11.278 88.88-163.273-41.3 10.738-109.31zM392.76 85.19l-8.643 93.06-.142-.033L270.93 192.8l-.678 2.494c-.142.538-13.258 48.995-27.08 71.033-8.946-5.26-19.006-8.784-29.755-10.09l-9.164-81.028L392.76 85.19zm-17.284 207.574l-98.25 14.815c-5.292-14.968-15-27.824-27.607-37.02 12.86-20.532 24.47-60.28 27.393-70.77l106.36-13.73-7.897 106.706zM184.27 176.196l9.078 80.237c-29.864 4.113-54.358 25.2-63.336 53.217l-83.78-12.968-8.044-77.706c27.77-1.838 48.6-10.875 61.948-27 12.034-14.514 15.495-31.685 16.157-44.484l67.976 28.705zm-160.083-67.6l84.465 35.668c-.242 11.777-2.905 28.865-14.443 42.79-12.038 14.515-31.183 22.633-57 24.262l-13.023-102.72zm-1.09 382.325l20.78-174.4L126.5 329.32c-.062 1.324-.195 2.636-.195 3.99 0 18.163 6.307 34.855 16.807 48.107l-42.912 34.458-13.52 86.96-63.585-11.917zm161.878 30.36l-90.72-17.018 13.103-84.252 40.837-32.78c12.528 12.95 29.48 21.592 48.42 23.376l-11.64 110.673zM141.73 333.31c0-34.347 27.934-62.28 62.263-62.28 34.347 0 62.282 27.934 62.282 62.28 0 34.33-27.935 62.266-62.282 62.266-34.33.006-62.264-27.935-62.264-62.265zM206.42 525.3l-1.75-.33 12.12-115.12c36.755-6.134 64.9-38.075 64.9-76.555 0-2.08-.15-4.114-.314-6.16l96.038-14.48 8.016 81.91c-42.132 1.98-73.625 14.933-93.45 38.858-23.113 27.924-24.204 62.738-23.007 79.95l-62.554 11.928zm70.246-13.38c-.93-16.338.42-48.398 21.264-73.566 18.438-22.26 48.182-34.27 88.244-36.09l8.535 87.153-118.044 22.502zM402.973 190.97l163.03 41.226-9.776 77.017-160.974-19.43 7.72-98.812zm131.083 184.775l-74.175-8.82 13.585 131.58-59.428-12.772L397.185 309.7l1.732-.273L554.53 329.18l23.02 193.355-96.297-22.213-12.714-124.6 66.11 7.673-.594-7.65z"/></symbol><symbol viewBox="0 0 23.304 23.304" enable-background="new 0 0 23.304 23.304" id="icon-premium"><path d="M21.624 4.487c-.93 0-1.685.82-1.685 1.83 0 .658.317 1.23.796 1.555-1.012 1.52-2.44 3.283-3.912 3.794-1.937.673-3.743-3.463-4.632-5.92.66-.25 1.14-.926 1.14-1.73 0-1.01-.754-1.83-1.682-1.83-.926 0-1.68.82-1.68 1.83 0 .804.48 1.48 1.14 1.73-.888 2.457-2.692 6.593-4.632 5.92-1.47-.51-2.9-2.275-3.91-3.794.476-.325.795-.896.795-1.554 0-1.01-.755-1.83-1.683-1.83-.926 0-1.68.82-1.68 1.83C0 7.33.754 8.15 1.68 8.15c.02 0 .032-.004.05-.006L4 18.69h15.303l2.27-10.546c.017 0 .033.007.052.007.925 0 1.68-.82 1.68-1.832-.002-1.01-.756-1.83-1.68-1.83zM4.077 19.06h15.148v2.057H4.077z"/></symbol><symbol viewBox="0 0 47.175 47.174" id="icon-telephone"><path d="M15.825 40.675c-3.93 0-7.077-1.764-7.918-5.563-.964-4.353-1.43-8.932.73-13.22.77-1.53 2.104-2.544 3.524-3.392 1.512-.903 2.47-1.98 2.132-3.89-.117-.665.148-1.392.055-2.064-.046-.334-.508-.61-.782-.914-.222.315-.665.654-.633.94.32 2.874-1.403 4.32-3.697 5.303-1.293.555-2.65 1.006-4.022 1.32-1.3.298-2.582-.025-3.645-.858-2.212-1.733-2.093-5.033.414-6.636 1.7-1.087 3.626-1.87 5.528-2.587 4.9-1.85 10.055-2.504 15.236-2.616 3.143-.068 6.305.407 9.448.748 4.142.45 8.044 1.79 11.747 3.64 1.012.506 2.04 1.346 2.606 2.302 1.754 2.965-.36 6.26-3.936 6.052-2.667-.157-5.136-1.145-7.145-3.02-.92-.86-1.383-1.912-1.222-3.2.032-.257.078-.586-.046-.773-.174-.263-.482-.53-.772-.585-.147-.027-.47.38-.553.64-.094.298-.018.653.003.98.033.527.218 1.086.1 1.573-.437 1.797.55 2.706 1.914 3.535 1.947 1.183 3.574 2.687 4.41 4.91.696 1.846.775 10.116.058 11.926-1.278 3.224-3.895 5.582-7.994 5.455-1.32-.04-13-.006-15.54-.005zm7.723-8.896c3.002-.143 5.66-.973 7.733-3.156 2.083-2.195 2.247-4.697.59-7.208-.97-1.47-2.365-2.338-3.95-2.993-4.04-1.67-8.92-.84-11.785 2.03-2.522 2.527-2.58 5.808-.058 8.338 2.063 2.07 4.688 2.84 7.47 2.99zm.1-20.986v.006c-1.35 0-2.698.025-4.046-.01-.848-.02-1.215.356-1.195 1.177.006.23-.046.466-.01.69.055.333.164.658.25.987.32-.12.68-.184.956-.37 2.05-1.383 5.967-1.366 8 .033.273.19.633.255.952.378.086-.36.195-.717.247-1.082.032-.223-.032-.458-.04-.688-.026-.823-.443-1.155-1.266-1.13-1.28.036-2.563.01-3.848.01zM24.112 27.844c-1.897-.097-3.226-.41-4.33-1.356-1.804-1.55-1.79-3.724.023-5.274 1.96-1.678 5.47-1.732 7.438-.115 2.166 1.78 1.97 4.525-.507 5.855-.932.5-2.028.694-2.624.89z"/></symbol><symbol viewBox="0 0 533.333 533.333" id="icon-twitter"><path d="M444.45 0H88.897C40.006 0 0 40.005 0 88.9v355.534c0 48.926 40.006 88.9 88.898 88.9h355.55c48.895 0 88.885-39.975 88.885-88.9V88.9c0-48.895-39.99-88.9-88.884-88.9zm-7.964 178.04c.17 3.823.255 7.67.255 11.535 0 117.82-88.133 253.682-249.3 253.682-49.482 0-95.54-14.767-134.316-40.062 6.854.826 13.83 1.247 20.9 1.247 41.054 0 78.834-14.257 108.82-38.17-38.34-.718-70.7-26.497-81.85-61.916 5.35 1.042 10.838 1.6 16.484 1.6 7.992 0 15.732-1.092 23.083-3.13-40.082-8.192-70.285-44.227-70.285-87.424 0-.376 0-.75.008-1.12 11.812 6.676 25.325 10.686 39.687 11.15-23.51-15.988-38.98-43.277-38.98-74.212 0-16.34 4.32-31.655 11.864-44.822 43.215 53.942 107.78 89.438 180.6 93.158-1.494-6.527-2.27-13.332-2.27-20.32 0-49.24 39.234-89.156 87.62-89.156 25.204 0 47.98 10.826 63.96 28.155 19.96-3.998 38.71-11.417 55.642-21.637-6.543 20.82-20.435 38.293-38.523 49.328 17.723-2.155 34.61-6.948 50.324-14.04-11.744 17.88-26.6 33.583-43.72 46.153z"/></symbol><symbol viewBox="0 0 322.482 322.482" enable-background="new 0 0 322.482 322.482" id="icon-weather"><path d="M142.62 45.938c6.483 0 12.787.756 18.874 2.094 1.936-4.76 3.068-10.302 3.068-16.246 0 0-9.698-31.786-21.658-31.786h-.56c-11.96 0-21.658 31.786-21.658 31.786 0 5.945 1.13 11.487 3.068 16.246 6.08-1.338 12.383-2.094 18.866-2.094zM142.898 267.77c11.96 0 21.658-31.785 21.658-31.785 0-5.945-1.13-11.487-3.068-16.246-6.086 1.337-12.39 2.093-18.874 2.093-6.483 0-12.787-.756-18.874-2.094-1.936 4.758-3.068 10.3-3.068 16.245 0 0 9.698 31.786 21.658 31.786h.568zM90.008 224.1c4.03-4.417 6.875-9.306 8.654-14.158-10.976-6.37-20.44-15.017-27.756-25.33-4.667 2.208-9.28 5.493-13.31 9.91 0 0-14.26 30.013-5.422 38.08l.413.38c8.834 8.06 37.42-8.882 37.42-8.882zM70.9 83.158c7.317-10.312 16.786-18.96 27.757-25.33-1.773-4.846-4.618-9.74-8.654-14.158 0 0-28.588-16.943-37.42-8.882l-.414.38c-8.84 8.062 5.422 38.08 5.422 38.08 4.035 4.416 8.642 7.702 13.31 9.91zM200.7 57.382c0-7.587 1.81-13.935 4.9-19.03-5.912 2.69-10.372 5.318-10.372 5.318-4.03 4.417-6.875 9.306-8.654 14.158 5.047 2.932 9.77 6.347 14.12 10.187V57.382h.005zM40.518 155.824c5.945 0 11.487-1.13 16.246-3.068-1.338-6.086-2.094-12.39-2.094-18.874 0-6.483.756-12.787 2.094-18.874-4.76-1.936-10.302-3.068-16.246-3.068 0 0-31.786 9.698-31.786 21.658v.56c0 11.973 31.786 21.666 31.786 21.666zM82.116 86.242c-7.876 9.992-13.3 21.968-15.452 35.066-.674 4.1-1.115 8.284-1.115 12.58 0 4.292.44 8.475 1.114 12.582 2.154 13.097 7.577 25.08 15.452 35.066 5.22 6.625 11.493 12.363 18.585 16.975 8.72 5.67 18.662 9.58 29.34 11.336 4.1.674 8.283 1.115 12.58 1.115 4.29 0 8.474-.44 12.58-1.114 10.678-1.757 20.615-5.668 29.34-11.335 6.03-3.92 11.454-8.663 16.164-14.064V83.33C196 77.93 190.57 73.188 184.54 69.267c-8.72-5.667-18.662-9.578-29.34-11.335-4.1-.673-8.283-1.114-12.58-1.114-4.29 0-8.474.44-12.58 1.115-10.678 1.758-20.62 5.67-29.34 11.336-7.09 4.613-13.357 10.35-18.584 16.976zM257.668 116.902V76.076c0-15.947-7.044-15.947-10.05-15.947-3.01 0-10.052 0-10.052 15.946v70.735h20.103v-29.908zM193.16 221.49c-6.62 10.22-10.568 22.322-10.568 35.414 0 36.22 29.36 65.58 65.58 65.58 4.573 0 9.033-.474 13.34-1.366 29.823-6.162 52.238-32.57 52.238-64.214 0-24.09-13.027-45.09-32.384-56.49V63.68c0-16.213-11.33-29.75-26.494-33.204-2.442-.555-4.977-.876-7.593-.876-5.892 0-11.434 1.496-16.27 4.123-10.616 5.776-17.817 17.024-17.817 29.958v137.814c-8.067 5.103-14.85 11.984-20.033 19.996zm54.456-166.8c11.808 0 15.49 9.573 15.49 21.386V220.805c16.23 4.155 24.813 18.2 25.977 32.188.14 1.07.234 2.154.234 3.253 0 22.724-18.422 41.147-41.147 41.147s-41.14-18.422-41.14-41.147c0-1.104.097-2.192.244-3.27.62-7.68 3.33-14.472 7.68-19.88 4.346-5.41 10.215-9.49 17.17-11.606V76.087c.002-11.82 3.684-21.397 15.492-21.397zM268.796 282.592c8.387-9.1 12.303-20.342 11.21-31.465-.74-7.533-15.996-7.588-15.25 0 .918 9.306-2.117 17.91-9.128 25.515-5.717 6.206 7.517 12.085 13.168 5.95z"/></symbol></svg>