<?xml version="1.0" encoding="utf-8"?><!DOCTYPE svg PUBLIC "-//W3C//DTD SVG 1.1//EN" "http://www.w3.org/Graphics/SVG/1.1/DTD/svg11.dtd"><svg xmlns="http://www.w3.org/2000/svg" xmlns:xlink="http://www.w3.org/1999/xlink"><symbol viewBox="0 0 64 64" id="icon-linea-arrows-check"><path fill="none" stroke="#000" stroke-width="2" stroke-miterlimit="10" d="M13 33l12 12 24-24"/></symbol><symbol viewBox="0 0 64 64" id="icon-linea-arrows-checkbox"><path fill="none" stroke="currentColor" stroke-width="10" stroke-miterlimit="10" d="M13 33l12 12 30-30"/></symbol><symbol viewBox="0 0 64 64" id="icon-linea-arrows-left-double"><path fill="none" stroke="currentColor" stroke-width="inherit" stroke-miterlimit="10" d="M32.936 48.936l-17-17 17-17"/><path fill="none" stroke="currentColor" stroke-width="inherit" stroke-miterlimit="10" d="M47.936 48.936l-17-17 17-17"/></symbol><symbol viewBox="0 0 64 64" id="icon-linea-arrows-right-double"><path fill="none" stroke="currentColor" stroke-width="inherit" stroke-miterlimit="10" d="M31 15l17 17-17 17"/><path fill="none" stroke="currentColor" stroke-width="inherit" stroke-miterlimit="10" d="M16 15l17 17-17 17"/></symbol><symbol viewBox="0 0 64 64" id="icon-linea-basic-calendar"><g fill="none" stroke="#000" stroke-width="2" stroke-miterlimit="10"><path d="M46 10H18M12 10H1v48h62V10H52"/><path d="M12 6h6v8h-6zM46 6h6v8h-6zM10 24h10v10H10zM10 42h10v10H10zM44 24h10v10H44zM44 42h10v10H44zM27 24h10v10H27zM27 42h10v10H27z"/></g><path fill="none" stroke="#000" stroke-width="2" stroke-miterlimit="10" d="M1 18h62"/></symbol><symbol viewBox="0 0 64 64" id="icon-linea-basic-compass"><circle fill="none" stroke="#000" stroke-width="2" stroke-miterlimit="10" cx="32" cy="35" r="28.292"/><path fill="none" stroke="#000" stroke-width="2" stroke-linejoin="bevel" stroke-miterlimit="10" d="M37 40l8-19-19 8-7 18z"/><path fill="none" stroke="#000" stroke-width="2" stroke-miterlimit="10" d="M26 29l11 11M36.9 7c.065-.323.1-.658.1-1 0-2.76-2.24-5-5-5s-5 2.24-5 5c0 .342.035.677.1 1M32 7v5M32 58v5M60 35h-5M9 35H4"/></symbol><symbol viewBox="0 0 64 64" id="icon-linea-basic-mail"><g fill="none" stroke="#000" stroke-width="2" stroke-miterlimit="10"><path d="M1 13h62v37H1z"/><path d="M1 13l31 20 31-20"/></g></symbol><symbol viewBox="0 0 64 64" id="icon-linea-basic-smartphone"><g fill="none" stroke="#000" stroke-width="2" stroke-miterlimit="10"><path d="M16 1h32v62H16zM28 5h8M16 51h32M16 9h32"/><circle stroke-linejoin="bevel" cx="32" cy="57" r="2"/></g></symbol></svg>