<?xml version="1.0" encoding="iso-8859-1" ?>
<!-- Generator: Adobe Illustrator 16.0.0, SVG Export Plug-In . SVG Version: 6.00 Build 0)  -->
<!DOCTYPE SVG PUBLIC "-//W3C//DTD SVG 1.1//EN" "http://www.w3.org/Graphics/SVG/1.1/DTD/svg11.dtd">
<svg version="1.1" id="Capa_1" xmlns="http://www.w3.org/2000/svg" xmlns:xlink="http://www.w3.org/1999/xlink" x="0px" y="0px"
     width="355.434px" height="355.434px" viewBox="0 0 355.434 355.434" style="enable-background:new 0 0 355.434 355.434;"
     xml:space="preserve">
<g>
<path d="M315.288,132.005c1.862,6.326,0.204,13.231-4.312,18.152c-11.553-5.503-18.668-23.803-20.95-30.561
		c0.589-0.147,1.135-0.208,1.627-0.208c3.766,0,6.51,2.888,6.533,2.933c0.469,0.505,1.063,0.859,1.729,1
		c0.402,0.081,2.57,0.522,5.717,0.522c16.987,0,31.201-11.136,42.069-28.081l2.763-3.123
		C372.189,87.507,315.672,133.32,315.288,132.005z M302.846,181.968C281.115,231.003,89.652,289.069,29.655,292.036
		c116.517-42.105,200.605-154.479,201.386-155.572c0.811-0.886,19.816-21.755,38.179-21.755c5.044,0,9.716,1.654,13.865,4.924
		c1.675,5.473,9.806,29.64,25.599,36.734 M47.285,151.767c24.626,16.276,29.49,33.576,29.847,59.798l0.135,9.626l5.804-7.687
		c6.206-8.227,11.751-23.07,9.292-36.25c-0.861-4.525-2.588-8.473-5.146-11.763c9.365,1.507,13.304,11.241,17.387,23.683
		c2.951,8.972,5.509,16.718,12.045,18.207c5.155,1.177,10.736-1.874,18.651-10.148c7.509-7.722,10.673-15.222,9.389-22.284
		c-2.447-13.46-19.804-21.629-35.128-28.838c-2.369-1.12-4.624-2.183-6.74-3.222c3.113-0.909,6.506-1.372,10.121-1.372
		c9.515,0,20.095,3.132,30.585,9.053c2.258,1.42,4.729,3.251,7.127,5.022c6.996,5.18,14.934,11.076,22.936,11.076
		c1.228,0,2.453-0.15,3.615-0.426c5.558-1.321,10.098-5.582,13.868-13.027c11.181-21.164-6.558-35.179-23.731-48.738
		c-15.636-12.358-30.438-24.049-27.739-41.079c3.993,9.26,15.048,26.274,43.529,32.453c4.555,1.603,44.234,16.288,40.211,39.814
		c-10.118,12.893-62.605,77.072-136.089,121.291c-6.53-5.458-15.213-7.74-23.028-9.806c-6.456-1.718-13.142-3.501-18.3-6.714
		c-13.553-9.89-19.074-24.211-21.299-34.401c-0.658-5.29-0.991-10.7-1.333-16.44C22.032,168.824,20.642,145.411,0,130.234
		C16.108,133.419,36.936,145.012,47.285,151.767z" />
</g>
</svg>
