<?xml version="1.0" encoding="iso-8859-1" ?>
<!-- Generator: Adobe Illustrator 16.0.0, SVG Export Plug-In . SVG Version: 6.00 Build 0)  -->
<!DOCTYPE SVG PUBLIC "-//W3C//DTD SVG 1.1//EN" "http://www.w3.org/Graphics/SVG/1.1/DTD/svg11.dtd">
<svg version="1.1" xmlns="http://www.w3.org/2000/svg" xmlns:xlink="http://www.w3.org/1999/xlink" x="0px" y="0px" width="26.827px" height="26.827px" viewBox="0 0 26.827 26.827" style="enable-background:new 0 0 26.827 26.827;" xml:space="preserve">
<g>
<path d="M23.158,22.585L23.158 10.204 25.452 10.204 25.452 8.676 1.223 8.676 1.223 10.204 3.592 10.204 3.592 22.585 5.961 22.585 5.961 10.204 9.019 10.204 9.019 22.585 11.388 22.585 11.388 10.204 15.361 10.204 15.361 22.585 17.732 22.585 17.732 10.204 20.788 10.204 20.788 22.585z" />
<path d="M13.528,0.267L0 7.969 26.827 7.969z" />
<path d="M25.452,23.924L25.452 23.046 24.495 23.046 2.565 23.046 1.452 23.046 1.452 24.802 0.61 24.802 0.61 26.561 26.448 26.561 26.448 24.802 25.452 24.802z" />
  </g>
</svg>
