<?xml version="1.0" encoding="iso-8859-1"?>
<!-- Generator: Adobe Illustrator 18.1.1, SVG Export Plug-In . SVG Version: 6.00 Build 0)  -->
<svg version="1.1" id="Capa_1" xmlns="http://www.w3.org/2000/svg" xmlns:xlink="http://www.w3.org/1999/xlink" x="0px" y="0px"
	 viewBox="0 0 23.304 23.304" style="enable-background:new 0 0 23.304 23.304;" xml:space="preserve">
<g>
	<g>
		<path d="M21.624,4.487c-0.931,0-1.685,0.821-1.685,1.831c0,0.657,0.318,1.229,0.797,1.554
			c-1.012,1.519-2.44,3.283-3.912,3.794c-1.937,0.673-3.743-3.463-4.632-5.921c0.659-0.248,1.139-0.925,1.139-1.728
			c0-1.01-0.753-1.83-1.681-1.83c-0.926,0-1.68,0.82-1.68,1.83c0,0.803,0.479,1.479,1.139,1.728
			c-0.887,2.458-2.691,6.594-4.631,5.921c-1.47-0.511-2.901-2.275-3.911-3.794c0.477-0.325,0.796-0.896,0.796-1.554
			c0-1.01-0.755-1.831-1.683-1.831C0.754,4.487,0,5.308,0,6.318c0,1.013,0.754,1.833,1.68,1.833c0.019,0,0.032-0.005,0.05-0.007
			L4,18.689h15.303l2.271-10.545c0.016,0.001,0.032,0.007,0.051,0.007c0.925,0,1.679-0.82,1.679-1.833
			C23.303,5.308,22.549,4.487,21.624,4.487z"/>
		<rect x="4.077" y="19.06" width="15.148" height="2.057"/>
	</g>
</g>
</svg>
